<svg width="82" height="82" viewBox="0 0 82 82" fill="none" xmlns="http://www.w3.org/2000/svg">
<mask id="mask0_3326_814" style="mask-type:luminance" maskUnits="userSpaceOnUse" x="0" y="0" width="82" height="82">
<path d="M0 0H82V82H0V0Z" fill="white"/>
</mask>
<g mask="url(#mask0_3326_814)">
<path d="M39.3366 15.5027C39.3366 18.4132 36.9773 20.7725 34.0668 20.7725C31.1563 20.7725 28.7969 18.4132 28.7969 15.5027C28.7969 12.5922 31.1563 10.2327 34.0668 10.2327C36.9773 10.2327 39.3366 12.5922 39.3366 15.5027Z" stroke="white" stroke-width="2.40234" stroke-miterlimit="10" stroke-linecap="round" stroke-linejoin="round"/>
<path d="M37.8931 62.5789C37.8931 66.0054 35.1154 68.7832 31.6888 68.7832C28.2621 68.7832 25.4844 66.0054 25.4844 62.5789C25.4844 59.1522 28.2621 56.3746 31.6888 56.3746C35.1154 56.3746 37.8931 59.1522 37.8931 62.5789Z" stroke="white" stroke-width="2.40234" stroke-miterlimit="10" stroke-linecap="round" stroke-linejoin="round"/>
<path d="M27.7299 28.9281C27.7299 32.6008 24.7524 35.5781 21.0799 35.5781C17.407 35.5781 14.4297 32.6008 14.4297 28.9281C14.4297 25.2554 17.407 22.2781 21.0799 22.2781C24.7524 22.2781 27.7299 25.2554 27.7299 28.9281Z" stroke="white" stroke-width="2.40234" stroke-miterlimit="10" stroke-linecap="round" stroke-linejoin="round"/>
<path d="M25.4838 47.9945C25.4838 51.6672 22.5065 54.6445 18.8338 54.6445C15.1609 54.6445 12.1836 51.6672 12.1836 47.9945C12.1836 44.3218 15.1609 41.3445 18.8338 41.3445C22.5065 41.3445 25.4838 44.3218 25.4838 47.9945Z" stroke="white" stroke-width="2.40234" stroke-miterlimit="10" stroke-linecap="round" stroke-linejoin="round"/>
<path d="M72.4225 28.1618L67.254 25.9492C66.463 25.6107 65.5472 25.9773 65.2086 26.7684L64.1691 29.197C63.8305 29.9881 64.1972 30.9038 64.9881 31.2424L70.1568 33.455C70.9478 33.7935 71.8636 33.4268 72.2022 32.6358L73.2417 30.2072C73.5803 29.4161 73.2136 28.5004 72.4225 28.1618Z" stroke="white" stroke-width="2.40234" stroke-miterlimit="10" stroke-linecap="round" stroke-linejoin="round"/>
<path d="M67.2511 25.9497L72.4196 28.1622C72.6549 28.2628 72.8516 28.4154 73.0044 28.5996C74.8436 27.5599 78.1118 25.2972 79.6618 21.6764C81.3693 17.6872 80.0365 10.4352 79.3262 7.28473C79.1517 6.51053 78.2705 6.13337 77.5898 6.54128C74.8197 8.2021 68.6526 12.2435 66.945 16.2328C65.395 19.8535 66.0137 23.7802 66.5312 25.8287C66.77 25.8121 67.016 25.8491 67.2511 25.9497Z" stroke="white" stroke-width="2.40234" stroke-miterlimit="10" stroke-linecap="round" stroke-linejoin="round"/>
<path d="M64.4995 30.9136C62.6162 33.9385 60.5047 37.7707 58.3125 42.1653L66.8578 45.8232C68.5241 41.2037 69.8394 37.0305 70.7281 33.5799C70.5359 33.5751 70.3417 33.5357 70.1543 33.4555L64.9856 31.2429C64.7982 31.1627 64.6356 31.0493 64.4995 30.9136Z" stroke="white" stroke-width="2.40234" stroke-miterlimit="10" stroke-linecap="round" stroke-linejoin="round"/>
<path d="M32.4806 77.6855C37.2867 77.3716 41.9913 75.5516 45.7976 72.3033C47.5185 67.0928 49.7997 61.0756 52.5086 54.7473C52.8888 53.8594 53.2703 52.9824 53.6523 52.1163C53.1364 47.9208 51.4516 43.8618 48.6069 40.4651C46.592 38.0589 45.2902 35.0558 45.2902 31.312C45.2902 22.7143 51.392 18.3305 58.6621 16.1588C65.8027 14.0257 65.2644 3.7515 57.9568 2.29007C32.4588 -2.80962 4.34354 10.2351 1.6968 36.9583C0.363977 50.4143 6.24043 61.594 14.2944 70.3871C17.8019 74.2164 22.24 76.5162 26.8751 77.3625" stroke="white" stroke-width="2.40234" stroke-miterlimit="10" stroke-linecap="round" stroke-linejoin="round"/>
<path d="M61.4737 59.3792C61.5698 59.1566 61.6657 58.9335 61.7615 58.7096C63.6933 54.1964 65.4083 49.8408 66.8577 45.8228L58.3125 42.1648C56.4056 45.9871 54.4377 50.2344 52.5059 54.7475C49.1912 62.4912 46.5154 69.7706 44.7255 75.6741C44.1573 77.5484 45.0455 79.5563 46.8108 80.4047C48.6988 81.3121 50.9655 80.5994 51.9961 78.7757C54.2516 74.7851 56.7188 69.9163 59.1971 64.5024" stroke="white" stroke-width="2.40234" stroke-miterlimit="10" stroke-linecap="round" stroke-linejoin="round"/>
</g>
</svg>
