<svg width="82" height="82" viewBox="0 0 82 82" fill="none" xmlns="http://www.w3.org/2000/svg">
<g clip-path="url(#clip0_3326_630)">
<path d="M65.833 36.8968C67.108 34.8662 67.7842 32.5172 67.7842 30.1195C67.7842 25.0236 64.7491 20.4175 60.0664 18.4072" stroke="white" stroke-width="3.20314" stroke-miterlimit="22.9256" stroke-linecap="round" stroke-linejoin="round"/>
<path d="M53.3778 72.3597C51.5464 73.3245 49.5075 73.8287 47.4374 73.8287C40.3981 73.8287 34.6914 68.1221 34.6914 61.0826C34.6914 61.0551 34.6916 61.0275 34.6916 61" stroke="white" stroke-width="3.20314" stroke-miterlimit="22.9256" stroke-linecap="round" stroke-linejoin="round"/>
<path d="M58.8477 33.1484C64.1634 34.8147 67.7813 39.7401 67.7813 45.3109C67.7813 47.8883 66.9999 50.4051 65.5403 52.5294" stroke="white" stroke-width="3.20314" stroke-miterlimit="22.9256" stroke-linecap="round" stroke-linejoin="round"/>
<path d="M12.5603 22.972C10.3988 20.62 9.19922 17.5421 9.19922 14.3476C9.19938 7.30809 14.9059 1.60156 21.9453 1.60156C28.9153 1.60156 34.5925 7.20014 34.69 14.1693" stroke="white" stroke-width="3.20314" stroke-miterlimit="22.9256" stroke-linecap="round" stroke-linejoin="round"/>
<path d="M3.55291 36.8964C2.2779 34.8658 1.60156 32.5166 1.60156 30.1189C1.60156 25.1097 4.53563 20.5648 9.10088 18.5029" stroke="white" stroke-width="3.20314" stroke-miterlimit="22.9256" stroke-linecap="round" stroke-linejoin="round"/>
<path d="M56.8223 22.9719C58.9838 20.6198 60.1832 17.5418 60.1832 14.3474C60.1832 7.30809 54.4767 1.60156 47.4373 1.60156C40.6411 1.60156 35.0401 6.93397 34.7067 13.722C34.698 13.9 34.6929 14.0774 34.6913 14.2541V61.0831C34.6913 68.1225 28.9848 73.8291 21.9453 73.8291C14.9059 73.8291 9.19922 68.1225 9.19922 61.0831C9.19922 56.9168 11.2354 53.0135 14.6524 50.6297" stroke="white" stroke-width="3.20314" stroke-miterlimit="22.9256" stroke-linecap="round" stroke-linejoin="round"/>
<path d="M25.8609 39.8431C23.7497 35.3981 19.2684 32.5654 14.3476 32.5654C7.30809 32.5654 1.60156 38.272 1.60156 45.3113C1.60156 50.2395 4.44257 54.7262 8.89764 56.8334" stroke="white" stroke-width="3.20314" stroke-miterlimit="22.9256" stroke-linecap="round" stroke-linejoin="round"/>
<path d="M44.9219 48.5868C45.7488 48.4205 46.5901 48.3369 47.4334 48.3369C52.1773 48.3369 56.5287 50.9715 58.7275 55.1749" stroke="white" stroke-width="3.20314" stroke-miterlimit="22.9256" stroke-linecap="round" stroke-linejoin="round"/>
<path d="M35.1953 28.3925C39.5615 28.1251 42.9656 24.5062 42.9656 20.1318" stroke="white" stroke-width="3.20314" stroke-miterlimit="22.9256" stroke-linecap="round" stroke-linejoin="round"/>
<path d="M54.7295 40.8613C53.7226 41.3839 52.9019 42.2049 52.3797 43.2121C51.1745 45.5363 51.774 48.3879 53.8131 50.03" stroke="white" stroke-width="3.20314" stroke-miterlimit="22.9256" stroke-linecap="round" stroke-linejoin="round"/>
<path d="M20.7148 24.501C21.7217 25.0236 22.5424 25.8447 23.0647 26.8517C24.3661 29.3617 23.5535 32.4494 21.1851 33.9936" stroke="white" stroke-width="3.20314" stroke-miterlimit="22.9256" stroke-linecap="round" stroke-linejoin="round"/>
<path d="M77.6895 77.6921C83.4327 71.9488 83.4327 62.6371 77.6895 56.8939C71.9462 51.1506 62.6345 51.1506 56.8913 56.8939C51.148 62.6371 51.148 71.9488 56.8913 77.6921C62.6345 83.4353 71.9462 83.4353 77.6895 77.6921Z" fill="white"/>
<path d="M67.2891 60.7568V74.6467" stroke="#273C75" stroke-width="3.20314" stroke-miterlimit="22.9256" stroke-linecap="round" stroke-linejoin="round"/>
<path d="M59.9375 67.293L67.2909 59.9395L74.6443 67.293" stroke="#273C75" stroke-width="3.20314" stroke-miterlimit="22.9256" stroke-linecap="round" stroke-linejoin="round"/>
</g>
<defs>
<clipPath id="clip0_3326_630">
<rect width="82" height="82" fill="white"/>
</clipPath>
</defs>
</svg>
