<svg width="72" height="72" viewBox="0 0 72 72" fill="none" xmlns="http://www.w3.org/2000/svg">
<path d="M66.7266 31.8506C66.7266 28.3259 64.9959 25.2074 62.3399 23.2923C63.363 20.1816 62.93 16.6414 60.8583 13.79C58.7866 10.9385 55.5533 9.43284 52.2789 9.44451C51.2782 6.32671 48.8471 3.71699 45.495 2.62785C42.1429 1.53871 38.6422 2.22088 36 4.15518C33.3578 2.22102 29.8571 1.53871 26.505 2.62785C23.1529 3.71699 20.7218 6.32657 19.7211 9.44451C16.4467 9.43269 13.2135 10.9385 11.1417 13.79C9.07003 16.6414 8.63705 20.1816 9.66009 23.2923C7.00411 25.2073 5.27344 28.3259 5.27344 31.8506C5.27344 35.3752 7.00411 38.4938 9.66009 40.4089C8.63705 43.5195 9.07003 47.0597 11.1417 49.9112C13.2134 52.7626 16.4467 54.2684 19.7211 54.2566C20.7218 57.3744 23.1529 59.9841 26.505 61.0733C29.8571 62.1624 33.3578 61.4803 36 59.546C38.6422 61.4801 42.1429 62.1624 45.495 61.0733C48.8471 59.9841 51.2782 57.3744 52.2789 54.2566C55.5533 54.2684 58.7865 52.7626 60.8583 49.9112C62.93 47.0597 63.363 43.5195 62.3399 40.4089C64.9959 38.4937 66.7266 35.3752 66.7266 31.8506Z" stroke="#1B1B1B" stroke-width="2" stroke-miterlimit="10"/>
<path d="M36 50.9756C46.5624 50.9756 55.125 42.413 55.125 31.8506C55.125 21.2881 46.5624 12.7256 36 12.7256C25.4376 12.7256 16.875 21.2881 16.875 31.8506C16.875 42.413 25.4376 50.9756 36 50.9756Z" stroke="#1B1B1B" stroke-width="2" stroke-miterlimit="10"/>
<path d="M26.7383 32.1616L32.7044 38.1278L44.6369 26.1953" stroke="#1B1B1B" stroke-width="2" stroke-miterlimit="10"/>
<path d="M52.2772 54.2568L59.8419 69.8908H45.6723L41.6484 61.5747" stroke="#1B1B1B" stroke-width="2" stroke-miterlimit="10"/>
<path d="M19.7212 54.2568L12.1562 69.8908H26.3259L30.3498 61.5747" stroke="#1B1B1B" stroke-width="2" stroke-miterlimit="10"/>
</svg>
