<svg width="43" height="47" viewBox="0 0 43 47" fill="none" xmlns="http://www.w3.org/2000/svg">
<path d="M41.7429 20.6019C41.7429 18.2521 40.5891 16.1731 38.8185 14.8963C39.5005 12.8226 39.2119 10.4624 37.8307 8.56147C36.4496 6.6605 34.2941 5.65672 32.1111 5.6645C31.444 3.58597 29.8233 1.84616 27.5885 1.12006C25.3538 0.393971 23.02 0.848752 21.2585 2.13828C19.4971 0.848846 17.1633 0.393971 14.9285 1.12006C12.6938 1.84616 11.0731 3.58588 10.406 5.6645C8.22298 5.65663 6.06758 6.6605 4.68636 8.56147C3.30523 10.4624 3.01658 12.8226 3.69861 14.8963C1.92795 16.173 0.77417 18.2521 0.77417 20.6019C0.77417 22.9516 1.92795 25.0307 3.69861 26.3074C3.01658 28.3812 3.30523 30.7413 4.68636 32.6423C6.06748 34.5433 8.22298 35.5471 10.406 35.5393C11.0731 37.6178 12.6938 39.3576 14.9285 40.0837C17.1633 40.8098 19.4971 40.355 21.2585 39.0655C23.02 40.3549 25.3538 40.8098 27.5885 40.0837C29.8233 39.3576 31.444 37.6178 32.1111 35.5393C34.2941 35.5471 36.4495 34.5433 37.8307 32.6423C39.2119 30.7413 39.5005 28.3812 38.8185 26.3074C40.5891 25.0306 41.7429 22.9516 41.7429 20.6019Z" stroke="#273C75" stroke-width="1.54839" stroke-miterlimit="10"/>
<path d="M21.2585 33.3525C28.3002 33.3525 34.0085 27.6442 34.0085 20.6025C34.0085 13.5609 28.3002 7.85254 21.2585 7.85254C14.2169 7.85254 8.50854 13.5609 8.50854 20.6025C8.50854 27.6442 14.2169 33.3525 21.2585 33.3525Z" fill="#273C75" stroke="#273C75" stroke-width="1.54839" stroke-miterlimit="10"/>
<path d="M15.0867 20.8086L19.0641 24.786L27.0191 16.8311" stroke="white" stroke-width="1.54839" stroke-miterlimit="10"/>
<path d="M32.11 35.54L37.1532 45.9627H27.7067L25.0242 40.4186" stroke="#273C75" stroke-width="1.54839" stroke-miterlimit="10"/>
<path d="M10.4034 35.54L5.36011 45.9627H14.8065L17.4891 40.4186" stroke="#273C75" stroke-width="1.54839" stroke-miterlimit="10"/>
</svg>
