<svg width="24" height="24" viewBox="0 0 24 24" fill="none" xmlns="http://www.w3.org/2000/svg">
<g clip-path="url(#clip0_2750_13012)">
<path d="M0.520011 23.9984C0.245051 23.9987 0.0219001 23.776 0.0216201 23.5011C0.0215734 23.4396 0.0328686 23.3786 0.0549924 23.3213L1.91404 18.499C-1.67533 12.9287 -0.0694423 5.50341 5.50084 1.91404C11.0711 -1.67533 18.4965 -0.0694423 22.0858 5.50084C25.6751 11.0711 24.0693 18.4965 18.499 22.0858C14.602 24.5969 9.60698 24.6383 5.66891 22.1921L0.690279 23.9695C0.63567 23.989 0.578027 23.9988 0.520011 23.9984ZM5.72665 21.1437C5.82247 21.144 5.91619 21.1721 5.99647 21.2243C11.0548 24.5046 17.8145 23.0633 21.0948 18.0049C24.3751 12.9466 22.9337 6.18691 17.8754 2.90662C12.8171 -0.373667 6.05738 1.06774 2.77714 6.126C0.397257 9.79583 0.437723 14.5319 2.87988 18.1605C2.9707 18.2952 2.99003 18.4659 2.93164 18.6175L1.37331 22.6671L5.55535 21.1735C5.61029 21.1536 5.66826 21.1435 5.72665 21.1437Z" fill="black"/>
<path d="M5.72665 21.1437C5.82247 21.144 5.91619 21.1721 5.99647 21.2243C11.0548 24.5046 17.8145 23.0633 21.0948 18.0049C24.3751 12.9466 22.9337 6.18691 17.8754 2.90662C12.8171 -0.373667 6.05738 1.06774 2.77714 6.126C0.397257 9.79583 0.437723 14.5319 2.87988 18.1605C2.9707 18.2952 2.99003 18.4659 2.93164 18.6175L1.37331 22.6671L5.55535 21.1735C5.61029 21.1536 5.66826 21.1435 5.72665 21.1437Z" fill="black"/>
<path d="M17.6671 14.0165C17.6671 14.0165 16.4474 13.4191 15.6836 13.0208C14.8194 12.5757 13.8037 13.4092 13.3258 13.8831C12.5819 13.5974 11.9025 13.1661 11.3274 12.6146C10.7757 12.0395 10.3445 11.3601 10.0588 10.6162C10.5328 10.1372 11.3642 9.12257 10.9211 8.2583C10.5278 7.49359 9.92541 6.27482 9.92541 6.27384C9.84088 6.10609 9.66917 6.00019 9.4813 6H8.48555C7.03546 6.25046 5.98113 7.51571 5.99625 8.98717C5.99625 10.5504 7.8672 13.5536 9.12882 14.8161C10.3904 16.0787 13.3935 17.9487 14.9578 17.9487C16.4292 17.9638 17.6945 16.9094 17.9449 15.4594V14.4637C17.9451 14.2738 17.8374 14.1005 17.6671 14.0165Z" fill="#FAFAFA"/>
<path d="M8.48555 6.99571C7.5992 7.25205 6.98986 8.06451 6.99196 8.98717C6.99196 10.1412 8.61899 12.8974 9.83374 14.1111C11.0485 15.3249 13.8037 16.9529 14.9577 16.9529C15.8804 16.955 16.6928 16.3457 16.9492 15.4593V14.7733C16.5419 14.5741 15.7702 14.1898 15.2276 13.911C14.9916 13.7975 14.2866 14.2853 13.8336 14.7942C13.705 14.9368 13.5067 14.9942 13.3218 14.9426C12.3089 14.6157 11.3842 14.0615 10.6184 13.3225C9.88116 12.5562 9.32877 11.6315 9.00331 10.6191C8.94963 10.4342 9.00742 10.2349 9.15169 10.1074C9.65951 9.6583 10.1554 8.95333 10.0349 8.71333C9.7551 8.17466 9.37376 7.40294 9.17162 6.99571H8.48555Z" fill="white"/>
</g>
<defs>
<clipPath id="clip0_2750_13012">
<rect width="24" height="24" fill="white"/>
</clipPath>
</defs>
</svg>
