<svg width="78" height="78" viewBox="0 0 78 78" fill="none" xmlns="http://www.w3.org/2000/svg">
<path d="M33.7936 69.0813C36.6328 72.0444 41.3672 72.0444 44.2061 69.0813C47.2218 65.9336 51.182 61.8004 55.1407 57.6686V49.9452C55.1407 42.8457 49.3321 37.0371 42.2327 37.0371H35.7674C28.668 37.0371 22.8594 42.8457 22.8594 49.9452V57.6686C26.8179 61.8005 30.778 65.9338 33.7936 69.0813Z" stroke="white" stroke-width="2" stroke-miterlimit="10" stroke-linecap="round" stroke-linejoin="round"/>
<path d="M61.7144 31.9443C65.0602 31.9443 67.7725 29.232 67.7725 25.8862C67.7725 22.5404 65.0602 19.8281 61.7144 19.8281C58.3686 19.8281 55.6562 22.5404 55.6562 25.8862C55.6562 29.232 58.3686 31.9443 61.7144 31.9443Z" stroke="white" stroke-width="2" stroke-miterlimit="10" stroke-linecap="round" stroke-linejoin="round"/>
<path d="M16.2847 31.9443C19.6305 31.9443 22.3428 29.232 22.3428 25.8862C22.3428 22.5404 19.6305 19.8281 16.2847 19.8281C12.9389 19.8281 10.2266 22.5404 10.2266 25.8862C10.2266 29.232 12.9389 31.9443 16.2847 31.9443Z" stroke="white" stroke-width="2" stroke-miterlimit="10" stroke-linecap="round" stroke-linejoin="round"/>
<path d="M71.2434 40.8604C71.7433 40.3385 72.2091 39.7965 72.642 39.2375C71.901 35.1056 68.2694 31.9434 63.9328 31.9434H59.5C54.8306 31.9434 50.9779 35.6089 50.6719 40.2043C53.4028 42.5757 55.1392 46.0664 55.1392 49.9452V57.6687C62.7766 49.6972 70.4087 41.7315 71.2434 40.8604Z" stroke="white" stroke-width="2" stroke-miterlimit="10" stroke-linecap="round" stroke-linejoin="round"/>
<path d="M18.5013 31.9434H14.0686C9.73184 31.9434 6.10038 35.1056 5.35938 39.2377C5.79234 39.7966 6.25806 40.3386 6.75806 40.8606C7.59276 41.7318 15.2248 49.6975 22.8622 57.6688V49.9454C22.8622 46.0665 24.5984 42.5758 27.3295 40.2044C27.0233 35.6089 23.1707 31.9434 18.5013 31.9434Z" stroke="white" stroke-width="2" stroke-miterlimit="10" stroke-linecap="round" stroke-linejoin="round"/>
<path d="M18.3687 6.91277C14.3684 7.50326 10.5063 9.29743 7.3642 12.3078C-0.689075 20.0238 -0.962688 32.8072 6.75329 40.8606C8.02065 42.1834 24.9581 59.8614 33.7917 69.0815C36.6308 72.0446 41.3652 72.0446 44.2042 69.0815C53.0379 59.8614 69.9755 42.1833 71.2427 40.8606C78.9585 32.8073 78.6851 20.0238 70.6317 12.3079C62.5784 4.59209 49.7949 4.86555 42.079 12.9188L41.1952 13.8413C39.9972 15.0917 37.9985 15.0917 36.8005 13.8413L35.9167 12.9188C32.5411 9.39569 28.1956 7.36143 23.7006 6.8337" stroke="white" stroke-width="2" stroke-miterlimit="10" stroke-linecap="round" stroke-linejoin="round"/>
<path d="M47.4258 25.5352C46.2951 21.9585 42.9509 19.3652 39.0001 19.3652C34.12 19.3652 30.1641 23.3212 30.1641 28.2013C30.1641 33.0813 34.12 37.0373 39.0001 37.0373C42.9509 37.0373 46.2951 34.4441 47.4258 30.8673" stroke="white" stroke-width="2" stroke-miterlimit="10" stroke-linecap="round" stroke-linejoin="round"/>
</svg>
