<svg width="82" height="82" viewBox="0 0 82 82" fill="none" xmlns="http://www.w3.org/2000/svg">
<g clip-path="url(#clip0_3191_4746)">
<mask id="mask0_3191_4746" style="mask-type:luminance" maskUnits="userSpaceOnUse" x="0" y="0" width="82" height="82">
<path d="M0 7.62939e-06H82V82H0V7.62939e-06Z" fill="white"/>
</mask>
<g mask="url(#mask0_3191_4746)">
<path d="M41.6184 60.0811L41.6301 56.6598C41.6368 45.9372 37.7008 35.5586 30.4749 27.6364C25.9182 22.6409 17.6016 17.3233 17.6016 17.3233" stroke="white" stroke-width="3.2" stroke-miterlimit="10" stroke-linecap="round" stroke-linejoin="round"/>
<path d="M41.6289 60.0811C41.6235 51.2504 44.8649 42.7028 50.816 36.1785C54.5687 32.0643 59.3465 28.4377 65.1589 25.7452" stroke="white" stroke-width="3.2" stroke-miterlimit="10" stroke-linecap="round" stroke-linejoin="round"/>
<path d="M6.11328 77.4033H75.6952" stroke="white" stroke-width="3.2" stroke-miterlimit="10" stroke-linecap="round" stroke-linejoin="round"/>
<path d="M18.9516 5.98177C24.0154 7.14114 29.3288 9.2126 33.7192 12.839C37.3533 15.8408 38.937 19.3146 39.5139 22.4437C41.1663 31.4077 34.5395 39.4339 25.4219 39.5044C22.2401 39.5291 18.5296 38.6299 14.8955 35.6281C5.39024 27.7768 2.22523 14.3003 1.24123 8.11665C0.955832 6.32306 2.30867 4.68514 4.12388 4.62668C6.40339 4.55317 9.68787 4.5812 13.4021 5.0258" stroke="white" stroke-width="3.2" stroke-miterlimit="10" stroke-linecap="round" stroke-linejoin="round"/>
<path d="M69.6723 38.3603C76.5361 32.3636 79.5897 22.9545 80.7257 18.3918C81.0868 16.9405 80.0929 15.5007 78.6078 15.3241C73.4871 14.7148 62.0981 14.1961 53.7424 19.9643C50.5478 22.1696 49.0021 24.9075 48.3069 27.4343C46.3156 34.672 51.1841 41.7274 58.66 42.4316C60.5399 42.6088 62.6788 42.4118 64.9226 41.4628" stroke="white" stroke-width="3.2" stroke-miterlimit="10" stroke-linecap="round" stroke-linejoin="round"/>
<path d="M70.0113 77.4033C70.0302 76.6663 69.8037 75.9103 69.2668 75.2965C69.254 75.2821 69.2414 75.2676 69.2286 75.2532C67.0786 72.8237 64.1348 71.8385 61.3406 72.2972C60.8505 71.3919 60.2616 70.5355 59.5681 69.752C57.6554 67.5904 55.2618 66.3039 52.7765 65.8903C50.0952 62.3369 46.1071 60.081 41.6506 60.081C37.1943 60.081 33.2062 62.3369 30.5249 65.8903C28.0396 66.3039 25.646 67.5904 23.7331 69.752C23.0398 70.5355 22.4509 71.3919 21.9609 72.2972C19.1666 71.8385 16.2226 72.8237 14.0728 75.2532C14.06 75.2676 14.0472 75.2821 14.0346 75.2965C13.4976 75.9103 13.2713 76.6663 13.2902 77.4033" stroke="white" stroke-width="3.2" stroke-miterlimit="10" stroke-linecap="round" stroke-linejoin="round"/>
</g>
</g>
<defs>
<clipPath id="clip0_3191_4746">
<rect width="82" height="82" fill="white"/>
</clipPath>
</defs>
</svg>
