<svg width="82" height="82" viewBox="0 0 82 82" fill="none" xmlns="http://www.w3.org/2000/svg">
<g clip-path="url(#clip0_3326_753)">
<path d="M22.5273 17.2896C27.6234 13.3139 34.0342 10.9453 40.9983 10.9453C48.8519 10.9453 56.0019 13.9577 61.3559 18.8899" stroke="white" stroke-width="3.2" stroke-miterlimit="10" stroke-linecap="round" stroke-linejoin="round"/>
<path d="M61.2831 63.1757C55.9371 68.0687 48.8161 71.0538 40.9979 71.0538C32.6986 71.0538 25.185 67.6899 19.7461 62.251" stroke="white" stroke-width="3.2" stroke-miterlimit="10" stroke-linecap="round" stroke-linejoin="round"/>
<path d="M61.3382 49.5079C58.0023 57.4527 50.1417 63.0467 40.9991 63.0467C31.122 63.0467 22.741 56.5176 19.9453 47.5488" stroke="white" stroke-width="3.2" stroke-miterlimit="10" stroke-linecap="round" stroke-linejoin="round"/>
<path d="M26.0469 24.8115C29.9792 21.1769 35.2339 18.9531 40.9983 18.9531C50.2846 18.9531 58.2485 24.7245 61.4914 32.8686" stroke="white" stroke-width="3.2" stroke-miterlimit="10" stroke-linecap="round" stroke-linejoin="round"/>
<path d="M72.2671 48.0469V64.5535C72.2671 67.531 69.8533 69.9449 66.8757 69.9449C63.8982 69.9449 61.4844 67.5312 61.4844 64.5535V51.0895" stroke="white" stroke-width="3.2" stroke-miterlimit="10" stroke-linecap="round" stroke-linejoin="round"/>
<path d="M73.5523 16.5996C71.9013 15.2888 70.0284 14.2411 67.9984 13.5207C64.8196 12.3926 61.4844 14.7746 61.4844 18.1475V50.6774C72.1511 50.6774 80.7983 42.1099 80.7983 31.5412C80.7983 27.2238 79.3552 23.2404 76.921 20.0386" stroke="white" stroke-width="3.2" stroke-miterlimit="10" stroke-linecap="round" stroke-linejoin="round"/>
<path d="M19.4038 48.0773V65.5414C19.4038 68.0282 17.3879 70.0441 14.9011 70.0441H13.1237C10.637 70.0441 8.62109 68.0282 8.62109 65.5414V47.8193" stroke="white" stroke-width="3.2" stroke-miterlimit="10" stroke-linecap="round" stroke-linejoin="round"/>
<path d="M25.432 39.4544C23.3133 45.2781 18.9955 49.2662 14.0137 49.2662C6.93864 49.2662 1.20312 41.223 1.20312 31.301C1.20312 21.379 6.93848 13.3359 14.0135 13.3359C21.0886 13.3359 26.8241 21.3791 26.8241 31.3011C26.8241 32.4144 26.7519 33.5041 26.6137 34.5614" stroke="white" stroke-width="3.2" stroke-miterlimit="10" stroke-linecap="round" stroke-linejoin="round"/>
</g>
<defs>
<clipPath id="clip0_3326_753">
<rect width="82" height="82" fill="white"/>
</clipPath>
</defs>
</svg>
