<svg width="82" height="82" viewBox="0 0 82 82" fill="none" xmlns="http://www.w3.org/2000/svg">
<path d="M58.2065 41.0004C58.2065 39.0026 56.64 37.371 54.6685 37.2658C53.0296 31.2547 47.5322 26.835 41.0017 26.835C34.4711 26.835 28.9737 31.2546 27.3349 37.2658C25.3634 37.3708 23.7969 39.0024 23.7969 41.0004C23.7969 42.9982 25.3632 44.6299 27.3349 44.7349C28.9737 50.746 34.4711 55.1658 41.0017 55.1658C47.5322 55.1658 53.0296 50.7462 54.6685 44.7349C56.6401 44.6299 58.2065 42.9982 58.2065 41.0004Z" stroke="white" stroke-width="3.2" stroke-miterlimit="10" stroke-linecap="round" stroke-linejoin="round"/>
<path d="M41.0007 26.835C43.6348 26.835 45.77 28.9702 45.77 31.6042C45.77 34.2383 43.6348 36.3735 41.0007 36.3735C40.1582 36.3735 39.3667 36.1551 38.6797 35.7717" stroke="white" stroke-width="3.2" stroke-miterlimit="10" stroke-linecap="round" stroke-linejoin="round"/>
<path d="M79.6015 26.1177C79.6015 15.0965 70.6541 6.16218 59.6167 6.16218C52.5184 6.16218 46.2852 9.85784 42.74 15.4271C41.9205 16.7145 40.0299 16.7145 39.2104 15.4271C35.6652 9.85784 29.432 6.16218 22.3337 6.16218C10.7481 6.1313 2.40554 16.0046 2.40554 27.6251H2.40234C2.40234 56.0946 40.9888 75.8387 40.9888 75.8387C41.3369 75.7867 79.6015 56.7772 79.6015 26.1177Z" stroke="white" stroke-width="3.2" stroke-miterlimit="10" stroke-linecap="round" stroke-linejoin="round"/>
</svg>
