<svg width="31" height="31" viewBox="0 0 31 31" fill="none" xmlns="http://www.w3.org/2000/svg">
<path d="M1.96753 10.6001H6.92973V29.8678H1.96753V10.6001Z" fill="#131313"/>
<mask id="mask0_453_6292" style="mask-type:luminance" maskUnits="userSpaceOnUse" x="-1" y="-1" width="32" height="32">
<path d="M-0.00854492 -0.000459671H30.7607V30.7688H-0.00854492V-0.000459671Z" fill="white"/>
</mask>
<g mask="url(#mask0_453_6292)">
<path d="M1.9624 10.6006H6.9246V29.8683H1.9624V10.6006Z" stroke="#131313" stroke-width="1.23077" stroke-miterlimit="10"/>
<path d="M4.44041 6.80365C2.81342 6.80365 1.48975 5.47997 1.48975 3.85293C1.48975 2.22595 2.81342 0.902328 4.44041 0.902328C6.06739 0.902328 7.39113 2.22595 7.39113 3.85293C7.39113 5.47997 6.06739 6.80365 4.44041 6.80365Z" fill="#131313"/>
<path d="M4.44041 6.80365C2.81342 6.80365 1.48975 5.47997 1.48975 3.85293C1.48975 2.22595 2.81342 0.902328 4.44041 0.902328C6.06739 0.902328 7.39113 2.22595 7.39113 3.85293C7.39113 5.47997 6.06739 6.80365 4.44041 6.80365Z" stroke="#131313" stroke-width="1.23077" stroke-miterlimit="10"/>
<path d="M24.2948 29.869L24.2881 18.5905C24.2881 16.4711 22.5635 14.7466 20.4438 14.7466C18.324 14.7466 16.5995 16.4711 16.5995 18.591V29.869H11.6372V10.6013H16.2664V13.178L17.2452 13.1836L17.4239 12.9062C18.6123 11.0613 20.6364 9.95983 22.8386 9.95983C26.3588 9.95983 29.1775 12.6489 29.2556 16.0819L29.2575 16.1654V29.869H24.2948Z" fill="#131313"/>
<path d="M24.2948 29.869L24.2881 18.5905C24.2881 16.4711 22.5635 14.7466 20.4438 14.7466C18.324 14.7466 16.5995 16.4711 16.5995 18.591V29.869H11.6372V10.6013H16.2664V13.178L17.2452 13.1836L17.4239 12.9062C18.6123 11.0613 20.6364 9.95983 22.8386 9.95983C26.3588 9.95983 29.1775 12.6489 29.2556 16.0819L29.2575 16.1654V29.869H24.2948Z" stroke="#131313" stroke-width="1.23077" stroke-miterlimit="10"/>
</g>
</svg>
