<svg width="31" height="31" viewBox="0 0 31 31" fill="none" xmlns="http://www.w3.org/2000/svg">
<mask id="mask0_453_6252" style="mask-type:luminance" maskUnits="userSpaceOnUse" x="-1" y="-1" width="32" height="32">
<path d="M-0.00854492 -0.000453949H30.7607V30.7688H-0.00854492V-0.000453949Z" fill="white"/>
</mask>
<g mask="url(#mask0_453_6252)">
<path d="M23.5528 1.19982H7.20664C3.88759 1.19982 1.19702 3.89039 1.19702 7.20944V23.5556C1.19702 26.8746 3.88759 29.5652 7.20664 29.5652H23.5528C26.8718 29.5652 29.5624 26.8746 29.5624 23.5556V7.20944C29.5624 3.89039 26.8718 1.19982 23.5528 1.19982Z" fill="#131313"/>
<path d="M23.8508 5.407C23.021 5.407 22.3484 6.07959 22.3484 6.9094C22.3484 7.73921 23.021 8.4118 23.8508 8.4118C24.6806 8.4118 25.3532 7.73921 25.3532 6.9094C25.3532 6.07959 24.6806 5.407 23.8508 5.407Z" fill="#F2F2F2"/>
<path d="M15.3774 8.77209C11.7265 8.77209 8.76685 11.7318 8.76685 15.3827C8.76685 19.0336 11.7265 21.9932 15.3774 21.9932C19.0283 21.9932 21.988 19.0336 21.988 15.3827C21.988 11.7318 19.0283 8.77209 15.3774 8.77209Z" fill="#F2F2F2"/>
</g>
</svg>
