<svg width="74" height="74" viewBox="0 0 74 74" fill="none" xmlns="http://www.w3.org/2000/svg">
<g clip-path="url(#clip0_2750_10824)">
<path d="M35.125 41.4082C35.3059 41.5558 36.0511 42.1288 37.136 42.0785C38.0524 42.0361 38.6703 41.5742 38.8728 41.4082" stroke="black" stroke-width="2" stroke-miterlimit="10" stroke-linecap="round" stroke-linejoin="round"/>
<path d="M51.7583 28.6631C52.0697 29.6216 52.2894 30.6214 52.4069 31.6521C52.44 31.6511 52.4741 31.6511 52.5072 31.6511C54.7505 31.6511 56.5701 33.4696 56.5701 35.714C56.5701 37.9573 54.7506 39.7769 52.5072 39.7769C52.5041 39.7769 52.5001 39.7769 52.4972 39.7769C52.2077 48.0078 45.4425 54.5925 37.1405 54.5925C32.8973 54.5925 29.0558 52.8723 26.2745 50.0918C23.6154 47.4317 21.9252 43.8007 21.7838 39.7769C21.7808 39.7769 21.7769 39.7769 21.7738 39.7769C19.5305 39.7769 17.7109 37.9573 17.7109 35.714C17.7109 33.4696 19.5305 31.6511 21.7738 31.6511C21.8069 31.6511 21.841 31.6511 21.8741 31.6521C22.7477 23.9953 29.2503 18.0488 37.1406 18.0488C41.3838 18.0488 45.2253 19.7692 48.0066 22.5495C49.3643 23.8847 51.156 26.823 51.7583 28.6631Z" fill="#95D6ED" stroke="black" stroke-width="2" stroke-miterlimit="10" stroke-linecap="round" stroke-linejoin="round"/>
<path d="M52.4117 31.3098C52.4117 33.0947 50.9647 34.5419 49.1796 34.5419C47.3946 34.5419 45.9474 33.0949 45.9474 31.3098V30.1967C45.9474 29.0178 44.6544 28.3108 43.6516 28.9308C42.2564 29.7933 40.152 30.5925 37.1433 30.5925C34.1347 30.5925 32.0301 29.7933 30.6351 28.9308C29.6324 28.3108 28.3392 29.0178 28.3392 30.1967V31.5832C28.3392 33.3682 26.8922 34.5417 25.1071 34.5417C23.3221 34.5417 21.875 33.0947 21.875 31.3096" stroke="black" stroke-width="2" stroke-miterlimit="10" stroke-linecap="round" stroke-linejoin="round"/>
<circle cx="31.0497" cy="37.6181" r="1.44814" fill="black"/>
<circle cx="42.9481" cy="37.6181" r="1.44814" fill="black"/>
<path d="M59.8217 47.4243L66.4533 40.7926C74.5806 32.6654 74.5806 19.4883 66.4533 11.3611C58.326 3.23381 45.149 3.23381 37.0217 11.3611L36.9723 11.4104C28.8451 3.28319 15.668 3.28319 7.54075 11.4104C-0.586502 19.5377 -0.586502 32.7148 7.54075 40.842L34.3473 67.6486C35.7972 69.0984 38.1478 69.0984 39.5975 67.6486L50.641 56.605" stroke="black" stroke-width="2" stroke-miterlimit="10" stroke-linecap="round" stroke-linejoin="round"/>
<path d="M33.7188 47.4102C34.258 47.7098 35.4956 48.3016 37.1632 48.2612C38.6452 48.2253 39.7459 47.7075 40.2804 47.4102" stroke="black" stroke-width="2" stroke-miterlimit="10" stroke-linecap="round" stroke-linejoin="round"/>
<circle cx="55.2216" cy="52.0009" r="1.44814" fill="black"/>
</g>
<defs>
<clipPath id="clip0_2750_10824">
<rect width="74" height="74" fill="white"/>
</clipPath>
</defs>
</svg>
