<svg width="74" height="74" viewBox="0 0 74 74" fill="none" xmlns="http://www.w3.org/2000/svg">
<path d="M67.173 19.584C70.1367 24.7075 71.8329 30.6558 71.8329 37.0003C71.8329 56.2375 56.2382 71.8323 37.0009 71.8323C26.6049 71.8323 17.2727 67.278 10.8906 60.0556" stroke="black" stroke-width="2" stroke-miterlimit="10"/>
<path d="M19.583 60.0391H10.875V68.7471" stroke="black" stroke-width="2" stroke-miterlimit="10"/>
<path d="M6.83185 54.4162C3.86809 49.2928 2.17188 43.3445 2.17188 37C2.17188 17.7627 17.7667 2.16797 37.0039 2.16797C47.3999 2.16797 56.7321 6.72229 63.1142 13.9447" stroke="black" stroke-width="2" stroke-miterlimit="10"/>
<path d="M54.4141 13.96H63.1221V5.25195" stroke="black" stroke-width="2" stroke-miterlimit="10"/>
<path d="M64.9819 37.0001C64.9819 37.0001 55.6554 54.4163 37.0027 54.4163C18.3496 54.4163 9.02344 37.0001 9.02344 37.0001C9.02344 37.0001 18.3496 19.584 37.0027 19.584C55.6554 19.584 64.9819 37.0001 64.9819 37.0001Z" fill="#273C75" stroke="black" stroke-width="2" stroke-miterlimit="10"/>
<path d="M37.0022 54.4166C46.621 54.4166 54.4185 46.619 54.4185 37.0003C54.4185 27.3815 46.621 19.584 37.0022 19.584C27.3835 19.584 19.5859 27.3815 19.5859 37.0003C19.5859 46.619 27.3835 54.4166 37.0022 54.4166Z" fill="white" stroke="black" stroke-width="2" stroke-miterlimit="10"/>
<path d="M36.9971 45.709C41.8064 45.709 45.7051 41.8103 45.7051 37.001C45.7051 32.1917 41.8064 28.293 36.9971 28.293C32.1878 28.293 28.2891 32.1917 28.2891 37.001C28.2891 41.8103 32.1878 45.709 36.9971 45.709Z" fill="white" stroke="black" stroke-width="2" stroke-miterlimit="10"/>
</svg>
