<svg width="74" height="74" viewBox="0 0 74 74" fill="none" xmlns="http://www.w3.org/2000/svg">
<path d="M71.8359 42.0586V34.1094H2.17188V42.0586L8.82219 43.3598C9.5567 46.6271 10.8475 49.677 12.5851 52.4221L12.5794 52.4304L8.7969 58.053L15.9508 65.2069L21.5733 61.4245L21.5817 61.4188C24.3268 63.1563 27.3768 64.4472 30.644 65.1816L31.9453 71.832H42.0625L43.3637 65.1817C46.631 64.4472 49.6809 63.1564 52.426 61.419L52.4343 61.4246L58.0569 65.207L65.2108 58.0531L61.4282 52.4306L61.4226 52.4222C63.16 49.6771 64.451 46.6271 65.1855 43.36L71.8359 42.0586Z" fill="#F9A78F" stroke="black" stroke-width="2" stroke-miterlimit="10" stroke-linecap="round" stroke-linejoin="round"/>
<path d="M37 13.7305C40.1929 13.7305 42.7812 11.1421 42.7812 7.94922C42.7812 4.75632 40.1929 2.16797 37 2.16797C33.8071 2.16797 31.2188 4.75632 31.2188 7.94922C31.2188 11.1421 33.8071 13.7305 37 13.7305Z" stroke="black" stroke-width="2" stroke-miterlimit="10" stroke-linecap="round" stroke-linejoin="round"/>
<path d="M64.4609 13.7305C67.6538 13.7305 70.2422 11.1421 70.2422 7.94922C70.2422 4.75632 67.6538 2.16797 64.4609 2.16797C61.268 2.16797 58.6797 4.75632 58.6797 7.94922C58.6797 11.1421 61.268 13.7305 64.4609 13.7305Z" stroke="black" stroke-width="2" stroke-miterlimit="10" stroke-linecap="round" stroke-linejoin="round"/>
<path d="M9.53906 13.7305C12.732 13.7305 15.3203 11.1421 15.3203 7.94922C15.3203 4.75632 12.732 2.16797 9.53906 2.16797C6.34617 2.16797 3.75781 4.75632 3.75781 7.94922C3.75781 11.1421 6.34617 13.7305 9.53906 13.7305Z" stroke="black" stroke-width="2" stroke-miterlimit="10" stroke-linecap="round" stroke-linejoin="round"/>
<path d="M64.4609 13.7305V23.9922H9.53906V13.7305" stroke="black" stroke-width="2" stroke-miterlimit="10" stroke-linecap="round" stroke-linejoin="round"/>
<path d="M37 13.7305V34.1094" stroke="black" stroke-width="2" stroke-miterlimit="10" stroke-linecap="round" stroke-linejoin="round"/>
<path d="M55.4333 35C55.4643 35.42 55.5 35.8391 55.5 36.2667C55.5 46.0605 47.2173 54 37 54C26.7827 54 18.5 46.0605 18.5 36.2667C18.5 35.8391 18.5357 35.42 18.5667 35" fill="white"/>
<path d="M55.4333 35C55.4643 35.42 55.5 35.8391 55.5 36.2667C55.5 46.0605 47.2173 54 37 54C26.7827 54 18.5 46.0605 18.5 36.2667C18.5 35.8391 18.5357 35.42 18.5667 35" stroke="black" stroke-width="2" stroke-miterlimit="10" stroke-linecap="round" stroke-linejoin="round"/>
</svg>
