<svg width="21" height="21" viewBox="0 0 21 21" fill="none" xmlns="http://www.w3.org/2000/svg">
<g clip-path="url(#clip0_2750_13004)">
<path fill-rule="evenodd" clip-rule="evenodd" d="M20.7981 17.4357C20.8306 17.3519 20.8595 17.277 20.8844 17.2135L20.8993 17.1718L20.9041 17.1595C21.0249 16.8589 21.0324 16.5247 20.9253 16.2189C20.8183 15.9132 20.6039 15.6567 20.322 15.4971L17.0096 13.5846C16.8557 13.496 16.6859 13.4386 16.5099 13.4157C16.3338 13.3927 16.155 13.4047 15.9835 13.4509C15.8121 13.4971 15.6515 13.5767 15.5108 13.685C15.3701 13.7933 15.2521 13.9282 15.1636 14.0821L15.0315 14.3083C14.697 14.8813 14.1968 15.245 13.5459 15.3783C13.2362 15.4464 12.9152 15.4457 12.6058 15.3762C12.2964 15.3067 12.006 15.1701 11.7551 14.9761C10.6719 14.1602 9.6477 13.2689 8.69001 12.3089C7.72977 11.3518 6.83843 10.3279 6.02268 9.245C5.8285 8.99403 5.69182 8.70345 5.62231 8.39383C5.5528 8.08421 5.55217 7.76309 5.62044 7.4532C5.75473 6.80137 6.11809 6.30016 6.69329 5.96613L6.91826 5.83546C7.22824 5.65583 7.4545 5.36077 7.54756 5.0148C7.64062 4.66883 7.59291 4.30008 7.41488 3.98918L5.50178 0.677291C5.34019 0.396423 5.08285 0.183152 4.77686 0.0765187C4.47087 -0.0301141 4.13672 -0.0229737 3.83557 0.0966328L3.7943 0.112547C3.74211 0.132653 3.6823 0.155479 3.61621 0.180704C2.86579 0.467115 1.30499 1.06282 0.870054 1.4981C0.793955 1.57422 0.722565 1.65491 0.65628 1.73972C-0.486456 3.20147 0.0877216 5.57665 0.691349 7.13487C1.8025 10.0042 3.91107 12.7653 6.0726 14.9264C8.23482 17.0884 10.9946 19.1968 13.8648 20.3093C14.8601 20.6951 15.9796 21 17.0542 21C17.9538 21 18.8501 20.7821 19.5022 20.1299C19.9158 19.7163 20.5017 18.202 20.7981 17.4357Z" fill="#313131"/>
</g>
<defs>
<clipPath id="clip0_2750_13004">
<rect width="21" height="21" fill="white"/>
</clipPath>
</defs>
</svg>
