<svg width="76" height="76" viewBox="0 0 76 76" fill="none" xmlns="http://www.w3.org/2000/svg">
<path d="M48.1553 7.49609L67.6488 26.9884" stroke="white" stroke-width="2" stroke-miterlimit="10"/>
<path d="M32.4472 61.3201L13.9053 42.7781C13.9053 42.7781 29.7434 3.38014 74.1689 1.05664C71.6582 45.2888 32.4472 61.3201 32.4472 61.3201Z" stroke="white" stroke-width="2" stroke-miterlimit="10"/>
<path d="M23.1585 52.0328C18.9351 47.8094 12.0875 47.8094 7.86406 52.0328C2.45709 57.4399 1.09277 74.0987 1.09277 74.0987C1.09277 74.0987 17.7516 72.7344 23.1585 67.3274C27.3821 63.1039 27.3821 56.2564 23.1585 52.0328Z" stroke="white" stroke-width="2" stroke-miterlimit="10"/>
<path d="M19.2904 32.1595L8.16309 21.0322L11.5884 17.6069L35.6392 15.0605" stroke="white" stroke-width="2" stroke-miterlimit="10"/>
<path d="M43.0303 55.8995L54.0869 66.9561L57.5122 63.5308L60.0896 39.2695" stroke="white" stroke-width="2" stroke-miterlimit="10"/>
<path d="M49.0999 31.6797C48.8465 30.8343 47.9511 28.4091 45.7954 27.4572C44.1934 26.75 42.0076 27.3254 41.1217 28.886C39.9558 30.9399 41.589 33.3269 42.4581 35.1465C43.2832 36.8736 42.8779 38.8437 41.3244 39.9999C39.6441 41.2505 37.4485 41.1172 35.8286 39.8512C34.4987 38.8119 33.6853 37.4324 33.3428 35.7945" stroke="white" stroke-width="2" stroke-miterlimit="10" stroke-linecap="square" stroke-linejoin="round"/>
<path d="M35.5007 39.627L33.8818 41.2458" stroke="white" stroke-width="2" stroke-miterlimit="10" stroke-linecap="square" stroke-linejoin="round"/>
<path d="M48.4253 26.6953L47.1318 27.9888" stroke="white" stroke-width="2" stroke-miterlimit="10" stroke-linecap="square" stroke-linejoin="round"/>
</svg>
