<svg width="72" height="72" viewBox="0 0 72 72" fill="none" xmlns="http://www.w3.org/2000/svg">
<mask id="mask0_2750_7899" style="mask-type:luminance" maskUnits="userSpaceOnUse" x="0" y="0" width="72" height="72">
<path d="M0 0H72V72H0V0Z" fill="white"/>
</mask>
<g mask="url(#mask0_2750_7899)">
<path d="M31.6156 13.2034C28.0615 13.8842 24.8026 15.3962 22.049 17.5292L18.4962 20.9592C15.6747 24.3482 13.824 28.5739 13.3718 33.2095H15.8908C16.5327 33.2095 16.9077 33.9336 16.5371 34.4578L9.53497 44.3665C9.21969 44.8129 8.55762 44.8129 8.24234 44.3665L1.2402 34.4578C0.869796 33.9336 1.2447 33.2095 1.88666 33.2095H4.45194C5.5384 17.6313 17.9411 5.17141 33.4954 3.99902" stroke="black" stroke-width="2" stroke-miterlimit="10" stroke-linecap="round" stroke-linejoin="round"/>
<path d="M58.6005 32.8144C57.0397 22.6821 48.7597 14.7671 38.4546 13.7614V16.2806C38.4546 16.9224 37.7307 17.2973 37.2063 16.9268L27.2975 9.92477C26.8513 9.60935 26.8513 8.94729 27.2975 8.63201L37.2063 1.63001C37.7307 1.25946 38.4546 1.63437 38.4546 2.27632V4.84174C53.5957 5.89769 65.791 17.6437 67.5401 32.5833" stroke="black" stroke-width="2" stroke-miterlimit="10" stroke-linecap="round" stroke-linejoin="round"/>
<path d="M38.2949 68.0163C49.9998 67.211 59.9471 60.0164 64.6759 49.8946L64.8071 49.6083L66.4574 45.0909C67.0248 43.0659 67.3952 40.9584 67.5464 38.7905H70.1117C70.7538 38.7905 71.1287 38.0666 70.7581 37.5422L63.7561 27.6335C63.4407 27.1873 62.7788 27.1873 62.4634 27.6335L55.4612 37.5422C55.0908 38.0666 55.4657 38.7905 56.1075 38.7905H58.6266C57.6512 48.788 50.1723 56.8795 40.475 58.7788" stroke="black" stroke-width="2" stroke-miterlimit="10" stroke-linecap="round" stroke-linejoin="round"/>
<path d="M28.8555 31.4287H43.1448" stroke="black" stroke-width="2" stroke-miterlimit="10" stroke-linecap="round" stroke-linejoin="round"/>
<path d="M28.8555 36H43.1448" stroke="black" stroke-width="2" stroke-miterlimit="10" stroke-linecap="round" stroke-linejoin="round"/>
<path d="M32.4277 40.5713H39.5725" stroke="black" stroke-width="2" stroke-miterlimit="10" stroke-linecap="round" stroke-linejoin="round"/>
<path d="M50.5611 35.9997C50.5611 44.0414 44.042 50.5605 36.0002 50.5605C27.9585 50.5605 21.4395 44.0414 21.4395 35.9997C21.4395 27.9579 27.9585 21.4388 36.0002 21.4388C44.042 21.4388 50.5611 27.9579 50.5611 35.9997Z" stroke="black" stroke-width="2" stroke-miterlimit="10" stroke-linecap="round" stroke-linejoin="round"/>
<path d="M13.3628 38.9491C14.8302 49.1945 23.1586 57.2253 33.544 58.2388V55.7196C33.544 55.0776 34.268 54.7027 34.7922 55.0733L44.7009 62.0753C45.1471 62.3907 45.1471 63.0528 44.7009 63.3681L34.7922 70.3701C34.268 70.7406 33.544 70.3657 33.544 69.7239V67.1585C18.2416 66.0913 5.94848 54.1054 4.40625 38.9391" stroke="black" stroke-width="2" stroke-miterlimit="10" stroke-linecap="round" stroke-linejoin="round"/>
<path d="M17.9716 21.6131C15.4456 24.8851 13.7953 28.8674 13.3716 33.2094H15.8907C16.5328 33.2094 16.9077 33.9333 16.5371 34.4577L9.53497 44.3664C9.21969 44.8128 8.55763 44.8128 8.24221 44.3664L1.24021 34.4577C0.869799 33.9333 1.2447 33.2094 1.88652 33.2094H4.4518C4.87128 27.1958 6.97686 21.6469 10.2993 17.0326" stroke="black" stroke-width="2" stroke-miterlimit="10" stroke-linecap="round" stroke-linejoin="round"/>
</g>
</svg>
